<svg width="2369" height="701" viewBox="0 0 2369 701" fill="none" xmlns="http://www.w3.org/2000/svg">
<g clip-path="url(#clip0_2004_77)">
<path d="M372.834 246.469C377.244 248.398 381.535 251.101 385.75 253.456L411.87 268.23C433.24 280.322 454.941 291.938 476.076 304.43L475.885 590.835L439.6 612.66L439.466 325.988L434.82 323.297C426.525 318.591 418.185 313.975 409.79 309.451L409.776 479.5C409.781 529.645 410.435 579.89 409.54 630.03C403.745 633.885 397.575 637.32 391.595 640.9C385.535 637.045 379.126 633.625 372.888 630.055C373.569 574.995 372.99 519.865 372.985 464.795L372.834 246.469Z" fill="black"/>
<path d="M246.604 176.632C254.977 182.548 268.578 189.348 277.937 194.68C299.7 207.124 321.541 219.432 343.459 231.602L343.374 611.78C335.688 607.785 328.271 603.235 320.804 598.85C316.15 596.23 311.537 593.54 306.967 590.78L306.805 254.062C289.805 244.94 273.111 235.075 256.398 225.433L209.311 198.458C221.678 191.149 234.536 184.4 246.604 176.632Z" fill="black"/>
<path d="M541.885 255.517C542.335 255.99 542.37 256.829 542.395 257.474C542.85 268.287 542.43 279.333 542.425 290.167L542.38 355.325L542.455 552.945C530.38 560.025 518.375 567.225 506.44 574.54L506.1 574.23C504.965 569.78 505.83 558.45 505.845 553.435L505.89 502.59L505.84 276.552C517.81 269.467 529.825 262.455 541.885 255.517Z" fill="black"/>
<path d="M241.489 255.196C253.824 261.648 265.851 268.944 277.969 275.811L277.944 574.16C265.558 567.83 253.561 560.19 241.531 553.185C241.911 519.705 241.544 486.185 241.538 452.705L241.489 255.196Z" fill="black"/>
<path d="M176.061 218.042C180.735 220.009 185.249 222.886 189.662 225.389C197.358 229.705 205 234.115 212.588 238.618L212.448 536.225C200.157 529.735 188.182 522.395 176.146 515.435L176.061 218.042Z" fill="black"/>
<path d="M607.545 217.927L608.29 218.522C608.675 230.266 608.37 242.115 608.375 253.869V319.772L608.33 515.03C596.54 522.05 584.7 528.98 572.8 535.815L572.235 535.755C571.135 530.78 571.985 519.835 571.99 514.23L572.02 462.015L572.01 238.555C583.64 231.348 595.665 224.716 607.545 217.927Z" fill="black"/>
<path d="M318.584 134.1C333.258 141.504 347.555 150.128 361.855 158.244L434.435 199.198C421.695 206.067 409.285 213.668 396.875 221.112C393.53 220.411 380.71 212.053 376.738 209.821L318.697 176.922C306.3 169.905 293.657 163.157 281.538 155.676C293.628 148.066 306.378 141.529 318.584 134.1Z" fill="black"/>
<path d="M391.3 91.4561C395.245 92.3301 415.865 105.216 421.225 108.276L504.855 155.86C492.46 163.012 479.855 169.957 467.77 177.612C461.575 175.576 441.905 163.339 434.95 159.377L354.041 113.192C366.196 105.57 378.938 98.7561 391.3 91.4561Z" fill="black"/>
<path d="M538.535 176.988C541.185 177.362 571.135 195.333 575.985 198.209C540.07 218.176 504.74 239.32 469.195 259.947C467.665 260.174 435.425 241.155 431.875 239.145C466.915 217.625 503.47 198.489 538.535 176.988Z" fill="black"/>
<circle cx="2137" cy="444" r="44" fill="black"/>
<path d="M869.52 296.84H794V337.16H862.8V390.28H794V485H731.28V243.72H869.52V296.84ZM969.625 351.56H981.465C993.838 351.56 1003.33 349 1009.95 343.88C1016.56 338.76 1019.87 331.4 1019.87 321.8C1019.87 312.2 1016.56 304.84 1009.95 299.72C1003.33 294.6 993.838 292.04 981.465 292.04H969.625V351.56ZM1107.55 485H1029.47L969.625 392.2V485H906.905V243.72H1004.51C1017.95 243.72 1029.68 245.747 1039.71 249.8C1049.73 253.64 1057.95 258.973 1064.35 265.8C1070.96 272.627 1075.87 280.52 1079.07 289.48C1082.48 298.44 1084.19 308.04 1084.19 318.28C1084.19 336.627 1079.71 351.56 1070.75 363.08C1062 374.387 1048.99 382.067 1031.71 386.12L1107.55 485ZM1264.98 395.4L1236.82 315.08L1208.66 395.4H1264.98ZM1281.62 443.08H1192.02L1177.62 485H1110.74L1202.58 243.72H1271.06L1362.9 485H1296.02L1281.62 443.08ZM1379.46 485L1420.42 243.72H1482.5L1530.82 372.36L1578.82 243.72H1640.9L1681.86 485H1619.46L1598.66 346.12L1541.7 485H1516.74L1462.66 346.12L1441.86 485H1379.46ZM1858.87 296.84H1784.31V337.16H1854.71V390.28H1784.31V431.88H1858.87V485H1721.59V243.72H1858.87V296.84ZM2036.57 305.48C2029.75 299.933 2022.92 295.88 2016.09 293.32C2009.27 290.547 2002.65 289.16 1996.25 289.16C1988.15 289.16 1981.53 291.08 1976.41 294.92C1971.29 298.76 1968.73 303.773 1968.73 309.96C1968.73 314.227 1970.01 317.747 1972.57 320.52C1975.13 323.293 1978.44 325.747 1982.49 327.88C1986.76 329.8 1991.45 331.507 1996.57 333C2001.91 334.493 2007.13 336.093 2012.25 337.8C2032.73 344.627 2047.67 353.8 2057.05 365.32C2066.65 376.627 2071.45 391.453 2071.45 409.8C2071.45 422.173 2069.32 433.373 2065.05 443.4C2061 453.427 2054.92 462.067 2046.81 469.32C2038.92 476.36 2029.11 481.8 2017.37 485.64C2005.85 489.693 1992.73 491.72 1978.01 491.72C1947.51 491.72 1919.24 482.653 1893.21 464.52L1920.09 413.96C1929.48 422.28 1938.76 428.467 1947.93 432.52C1957.11 436.573 1966.17 438.6 1975.13 438.6C1985.37 438.6 1992.95 436.253 1997.85 431.56C2002.97 426.867 2005.53 421.533 2005.53 415.56C2005.53 411.933 2004.89 408.84 2003.61 406.28C2002.33 403.507 2000.2 401.053 1997.21 398.92C1994.23 396.573 1990.28 394.44 1985.37 392.52C1980.68 390.6 1974.92 388.467 1968.09 386.12C1959.99 383.56 1951.99 380.787 1944.09 377.8C1936.41 374.6 1929.48 370.44 1923.29 365.32C1917.32 360.2 1912.41 353.8 1908.57 346.12C1904.95 338.227 1903.13 328.307 1903.13 316.36C1903.13 304.413 1905.05 293.64 1908.89 284.04C1912.95 274.227 1918.49 265.907 1925.53 259.08C1932.79 252.04 1941.53 246.6 1951.77 242.76C1962.23 238.92 1973.85 237 1986.65 237C1998.6 237 2011.08 238.707 2024.09 242.12C2037.11 245.32 2049.59 250.12 2061.53 256.52L2036.57 305.48Z" fill="black"/>
</g>
<defs>
<clipPath id="clip0_2004_77">
<rect width="2369" height="701" fill="white"/>
</clipPath>
</defs>
</svg>
